<?xml version="1.0" standalone="no"?>
<!DOCTYPE svg PUBLIC "-//W3C//DTD SVG 20010904//EN"
 "http://www.w3.org/TR/2001/REC-SVG-20010904/DTD/svg10.dtd">
<svg version="1.0" xmlns="http://www.w3.org/2000/svg"
 width="512.000000pt" height="512.000000pt" viewBox="0 0 512.000000 512.000000"
 preserveAspectRatio="xMidYMid meet">
<metadata>
Created by potrace 1.14, written by Peter Selinger 2001-2017
</metadata>
<g transform="translate(0.000000,512.000000) scale(0.100000,-0.100000)"
fill="#000000" stroke="none">
<path d="M2518 4695 c-2 -1 -48 -5 -103 -9 -275 -16 -527 -83 -792 -212 -149
-72 -313 -179 -441 -288 -94 -79 -229 -217 -277 -281 -17 -22 -36 -47 -44 -55
-40 -41 -160 -240 -216 -355 -120 -247 -177 -451 -210 -747 -7 -64 -8 -350 -1
-388 6 -30 12 -77 22 -145 3 -27 8 -58 10 -67 2 -10 6 -26 8 -36 131 -586 495
-1090 1003 -1388 253 -149 555 -252 818 -279 33 -4 71 -8 85 -11 31 -5 312 -5
360 0 118 13 166 20 280 42 106 21 320 95 447 154 520 245 932 707 1113 1247
44 132 85 312 95 418 4 39 9 79 11 90 5 26 5 334 0 360 -2 11 -7 49 -11 85 -4
36 -9 74 -11 85 -2 11 -6 31 -9 45 -3 14 -7 36 -10 50 -4 14 -9 39 -11 55 -14
75 -101 312 -159 430 -114 231 -228 389 -409 570 -135 135 -180 172 -316 264
-240 161 -485 263 -765 320 -138 28 -163 31 -300 37 -66 3 -130 6 -142 8 -13
2 -24 2 -25 1z m227 -439 c28 -4 68 -9 90 -12 151 -20 362 -91 525 -177 264
-140 507 -371 666 -633 181 -298 266 -682 231 -1044 -45 -464 -285 -895 -657
-1181 -562 -434 -1329 -473 -1935 -100 -280 173 -520 442 -654 735 -33 71 -98
251 -105 289 -2 12 -11 58 -20 102 -30 146 -41 403 -23 515 3 19 8 55 12 80
26 195 131 469 246 645 108 167 257 331 384 425 33 25 62 48 65 51 3 3 51 33
106 67 119 73 245 129 381 171 86 26 125 35 232 56 13 2 56 7 95 11 39 3 72 7
73 8 6 5 243 -2 288 -8z"/>
<path d="M2819 2794 l-547 -547 -260 261 -261 260 -150 -151 -151 -151 407
-408 c224 -225 411 -408 414 -408 4 0 320 314 703 697 l697 697 -148 148 c-81
81 -150 148 -153 148 -3 0 -251 -246 -551 -546z"/>
</g>
</svg>
